<svg xmlns="http://www.w3.org/2000/svg" xmlns:xlink="http://www.w3.org/1999/xlink" width="500" zoomAndPan="magnify" viewBox="0 0 375 374.999991" height="500" preserveAspectRatio="xMidYMid meet" version="1.0"><defs><clipPath id="id1"><path d="M 211 74.65625 L 324.472656 74.65625 L 324.472656 300.40625 L 211 300.40625 Z M 211 74.65625 " clip-rule="nonzero"/></clipPath><clipPath id="id2"><path d="M 50.722656 74.65625 L 164 74.65625 L 164 300.40625 L 50.722656 300.40625 Z M 50.722656 74.65625 " clip-rule="nonzero"/></clipPath></defs><path fill="#bcc7cd" d="M 333.023438 41.976562 L 333.023438 202.890625 C 333.019531 205.019531 332.964844 207.148438 332.859375 209.273438 C 332.75 211.402344 332.59375 213.523438 332.382812 215.640625 C 332.171875 217.761719 331.910156 219.871094 331.59375 221.980469 C 331.28125 224.085938 330.914062 226.179688 330.496094 228.269531 C 330.082031 230.355469 329.613281 232.433594 329.09375 234.496094 C 328.574219 236.5625 328.003906 238.613281 327.386719 240.648438 C 326.765625 242.6875 326.097656 244.707031 325.378906 246.710938 C 324.660156 248.714844 323.894531 250.703125 323.078125 252.667969 C 322.261719 254.632812 321.398438 256.578125 320.488281 258.503906 C 319.574219 260.429688 318.617188 262.328125 317.613281 264.207031 C 316.609375 266.082031 315.558594 267.933594 314.464844 269.761719 C 313.367188 271.585938 312.230469 273.382812 311.046875 275.152344 C 309.863281 276.921875 308.636719 278.664062 307.367188 280.375 C 306.101562 282.082031 304.789062 283.761719 303.4375 285.40625 C 302.089844 287.050781 300.699219 288.664062 299.269531 290.242188 C 297.839844 291.816406 296.371094 293.359375 294.863281 294.863281 C 293.359375 296.371094 291.816406 297.839844 290.242188 299.269531 C 288.664062 300.699219 287.050781 302.089844 285.40625 303.4375 C 283.761719 304.789062 282.082031 306.097656 280.375 307.367188 C 278.664062 308.636719 276.921875 309.863281 275.152344 311.046875 C 273.382812 312.230469 271.585938 313.367188 269.761719 314.464844 C 267.933594 315.558594 266.082031 316.609375 264.207031 317.613281 C 262.328125 318.617188 260.429688 319.574219 258.503906 320.488281 C 256.578125 321.398438 254.632812 322.261719 252.667969 323.078125 C 250.703125 323.894531 248.714844 324.660156 246.710938 325.378906 C 244.707031 326.097656 242.6875 326.765625 240.648438 327.386719 C 238.613281 328.003906 236.5625 328.574219 234.496094 329.09375 C 232.433594 329.613281 230.355469 330.082031 228.269531 330.496094 C 226.179688 330.914062 224.085938 331.28125 221.980469 331.59375 C 219.871094 331.910156 217.761719 332.171875 215.640625 332.382812 C 213.523438 332.59375 211.402344 332.75 209.273438 332.859375 C 207.148438 332.964844 205.019531 333.019531 202.890625 333.023438 L 41.976562 333.023438 L 41.976562 41.976562 L 333.023438 41.976562 M 375 0 L 0 0 L 0 375 L 202.890625 375 C 205.707031 375 208.523438 374.929688 211.335938 374.792969 C 214.148438 374.65625 216.957031 374.449219 219.761719 374.171875 C 222.5625 373.894531 225.359375 373.550781 228.144531 373.136719 C 230.929688 372.722656 233.707031 372.242188 236.46875 371.691406 C 239.230469 371.144531 241.976562 370.527344 244.710938 369.84375 C 247.441406 369.15625 250.15625 368.40625 252.851562 367.589844 C 255.546875 366.769531 258.222656 365.886719 260.875 364.9375 C 263.523438 363.992188 266.152344 362.976562 268.753906 361.898438 C 271.355469 360.820312 273.929688 359.679688 276.476562 358.476562 C 279.023438 357.269531 281.539062 356.003906 284.023438 354.675781 C 286.507812 353.351562 288.957031 351.960938 291.375 350.515625 C 293.789062 349.066406 296.167969 347.558594 298.511719 345.996094 C 300.851562 344.429688 303.152344 342.808594 305.417969 341.128906 C 307.679688 339.453125 309.898438 337.71875 312.074219 335.933594 C 314.253906 334.144531 316.386719 332.308594 318.472656 330.414062 C 320.558594 328.523438 322.597656 326.582031 324.589844 324.589844 C 326.582031 322.597656 328.523438 320.558594 330.414062 318.472656 C 332.308594 316.386719 334.144531 314.253906 335.933594 312.074219 C 337.71875 309.898438 339.453125 307.679688 341.128906 305.417969 C 342.808594 303.152344 344.429688 300.851562 345.996094 298.511719 C 347.558594 296.167969 349.066406 293.789062 350.515625 291.375 C 351.960938 288.957031 353.351562 286.507812 354.675781 284.023438 C 356.003906 281.539062 357.269531 279.023438 358.476562 276.476562 C 359.679688 273.929688 360.820312 271.355469 361.898438 268.753906 C 362.976562 266.152344 363.992188 263.523438 364.9375 260.875 C 365.886719 258.222656 366.769531 255.546875 367.589844 252.851562 C 368.40625 250.15625 369.15625 247.441406 369.84375 244.710938 C 370.527344 241.976562 371.144531 239.230469 371.691406 236.46875 C 372.242188 233.707031 372.722656 230.929688 373.136719 228.144531 C 373.550781 225.359375 373.894531 222.5625 374.171875 219.761719 C 374.449219 216.957031 374.65625 214.148438 374.792969 211.335938 C 374.929688 208.523438 375 205.707031 375 202.890625 Z M 375 0 " fill-opacity="1" fill-rule="nonzero"/><g clip-path="url(#id1)"><path fill="#bcc7cd" d="M 211.382812 74.632812 L 211.382812 120.800781 L 278.113281 187.5 L 211.382812 254.203125 L 211.382812 300.371094 L 324.296875 187.5 Z M 211.382812 74.632812 " fill-opacity="1" fill-rule="nonzero"/></g><g clip-path="url(#id2)"><path fill="#bcc7cd" d="M 163.871094 120.800781 L 163.871094 74.632812 L 50.953125 187.5 L 163.871094 300.371094 L 163.871094 254.203125 L 97.140625 187.5 Z M 163.871094 120.800781 " fill-opacity="1" fill-rule="nonzero"/></g><path fill="#bcc7cd" d="M 132.480469 187.5 L 187.625 132.378906 L 242.769531 187.5 L 187.625 242.625 Z M 132.480469 187.5 " fill-opacity="1" fill-rule="nonzero"/></svg>